<svg width="32" height="32" viewBox="0 0 32 32" fill="none" xmlns="http://www.w3.org/2000/svg">
<g clip-path="url(#clip0_766_5656)">
<path d="M18.3703 7.77778L24.2222 13.6296L13.6296 24.2222L7.77772 18.3704L18.3703 7.77778ZM14.4629 25.9074L25.9073 14.463C26.1419 14.2284 26.2592 13.9506 26.2592 13.6296C26.2592 13.3086 26.1419 13.0309 25.9073 12.7963L19.2036 6.09259C18.9814 5.87037 18.7036 5.75926 18.3703 5.75926C18.037 5.75926 17.7592 5.87037 17.537 6.09259L6.09253 17.537C5.85797 17.7716 5.74068 18.0494 5.74068 18.3704C5.74068 18.6914 5.85797 18.9691 6.09253 19.2037L12.7962 25.9074C13.0185 26.1296 13.2962 26.2407 13.6296 26.2407C13.9629 26.2407 14.2407 26.1296 14.4629 25.9074ZM30.9259 14.1111L14.1296 30.9259C13.6728 31.3827 13.1141 31.6111 12.4536 31.6111C11.7932 31.6111 11.2345 31.3827 10.7777 30.9259L8.44439 28.5926C9.13574 27.9012 9.48142 27.0617 9.48142 26.0741C9.48142 25.0864 9.13574 24.2469 8.44439 23.5556C7.75303 22.8642 6.91352 22.5185 5.92587 22.5185C4.93821 22.5185 4.09871 22.8642 3.40735 23.5556L1.09253 21.2222C0.635744 20.7654 0.407349 20.2068 0.407349 19.5463C0.407349 18.8858 0.635744 18.3272 1.09253 17.8704L17.8888 1.09259C18.3456 0.635805 18.9043 0.40741 19.5648 0.40741C20.2253 0.40741 20.7839 0.635805 21.2407 1.09259L23.5555 3.40741C22.8641 4.09877 22.5185 4.93827 22.5185 5.92593C22.5185 6.91358 22.8641 7.75309 23.5555 8.44445C24.2469 9.1358 25.0864 9.48148 26.074 9.48148C27.0617 9.48148 27.9012 9.1358 28.5925 8.44445L30.9259 10.7593C31.3827 11.2161 31.6111 11.7747 31.6111 12.4352C31.6111 13.0957 31.3827 13.6543 30.9259 14.1111Z" fill="#2A3143"/>
</g>
<defs>
<clipPath id="clip0_766_5656">
<rect width="32" height="32" fill="white"/>
</clipPath>
</defs>
</svg>
