<svg width="34" height="34" viewBox="0 0 34 34" fill="none" xmlns="http://www.w3.org/2000/svg">
<path d="M15.7958 4.81668L10.5258 13.43C9.94499 14.365 10.625 15.5833 11.73 15.5833H22.2558C23.3608 15.5833 24.0408 14.365 23.46 13.43L18.2042 4.81668C18.0789 4.60933 17.9023 4.43784 17.6913 4.3188C17.4803 4.19976 17.2422 4.13721 17 4.13721C16.7578 4.13721 16.5196 4.19976 16.3087 4.3188C16.0977 4.43784 15.9211 4.60933 15.7958 4.81668V4.81668Z" fill="#2A3143"/>
<path d="M24.7917 31.1665C28.3125 31.1665 31.1667 28.3123 31.1667 24.7915C31.1667 21.2707 28.3125 18.4165 24.7917 18.4165C21.2709 18.4165 18.4167 21.2707 18.4167 24.7915C18.4167 28.3123 21.2709 31.1665 24.7917 31.1665Z" fill="#2A3143"/>
<path d="M5.66667 30.4583H14.1667C14.9458 30.4583 15.5833 29.8208 15.5833 29.0417V20.5417C15.5833 19.7625 14.9458 19.125 14.1667 19.125H5.66667C4.8875 19.125 4.25 19.7625 4.25 20.5417V29.0417C4.25 29.8208 4.8875 30.4583 5.66667 30.4583Z" fill="#2A3143"/>
</svg>
