<svg width="31" height="31" viewBox="0 0 31 31" fill="none" xmlns="http://www.w3.org/2000/svg">
<path d="M20.5751 3.22619C20.3174 2.94052 20.0042 2.71028 19.6546 2.54948C19.305 2.38868 18.9264 2.30068 18.5417 2.29084C18.1571 2.28101 17.7745 2.34953 17.4171 2.49225C17.0598 2.63497 16.7352 2.84889 16.4632 3.12101L3.10108 16.482C2.83098 16.7521 2.61819 17.0739 2.47546 17.4282C2.33273 17.7825 2.26299 18.162 2.27044 18.5439C2.27788 18.9258 2.36235 19.3022 2.51878 19.6507C2.67521 19.9992 2.90038 20.3124 3.1808 20.5718L4.70312 21.979C5.49362 22.7097 6.57641 22.5469 7.23848 22.2779C7.56337 22.1459 7.91915 22.1092 8.26416 22.1721C8.60917 22.2349 8.92912 22.3948 9.18656 22.633C9.44399 22.8711 9.62824 23.1777 9.71774 23.5167C9.80724 23.8558 9.79828 24.2134 9.69191 24.5476C9.47601 25.2284 9.39741 26.3212 10.1879 27.0519L11.3172 28.0971C11.8522 28.5919 12.5571 28.8619 13.2858 28.851C14.0145 28.84 14.711 28.5491 15.2309 28.0384L27.9941 15.5033C28.516 14.9906 28.8197 14.296 28.8418 13.5647C28.8639 12.8334 28.6026 12.1218 28.1125 11.5785L26.9224 10.2588C26.2193 9.48044 25.1598 9.52362 24.4867 9.71184C24.1558 9.80408 23.8057 9.80227 23.4758 9.70661C23.1459 9.61095 22.8492 9.42523 22.619 9.1703C22.3888 8.91537 22.2342 8.60132 22.1726 8.2634C22.111 7.92549 22.1448 7.57708 22.2702 7.2573C22.527 6.60519 22.6787 5.55562 21.9757 4.7773L20.5751 3.2273V3.22619Z" fill="#2A3143"/>
</svg>
