<svg width="32" height="32" viewBox="0 0 32 32" fill="none" xmlns="http://www.w3.org/2000/svg">
<path d="M24 25.3334H8V23.4667C8 20.8 13.3333 19.3334 16 19.3334C18.6667 19.3334 24 20.8 24 23.4667M16 9.33337C17.0609 9.33337 18.0783 9.7548 18.8284 10.5049C19.5786 11.2551 20 12.2725 20 13.3334C20 14.3942 19.5786 15.4117 18.8284 16.1618C18.0783 16.9119 17.0609 17.3334 16 17.3334C14.9391 17.3334 13.9217 16.9119 13.1716 16.1618C12.4214 15.4117 12 14.3942 12 13.3334C12 12.2725 12.4214 11.2551 13.1716 10.5049C13.9217 9.7548 14.9391 9.33337 16 9.33337M16 4.00004C16.3536 4.00004 16.6928 4.14052 16.9428 4.39056C17.1929 4.64061 17.3333 4.97975 17.3333 5.33337C17.3333 5.687 17.1929 6.02613 16.9428 6.27618C16.6928 6.52623 16.3536 6.66671 16 6.66671C15.6464 6.66671 15.3072 6.52623 15.0572 6.27618C14.8071 6.02613 14.6667 5.687 14.6667 5.33337C14.6667 4.97975 14.8071 4.64061 15.0572 4.39056C15.3072 4.14052 15.6464 4.00004 16 4.00004M25.3333 4.00004H19.76C19.2 2.45337 17.7333 1.33337 16 1.33337C14.2667 1.33337 12.8 2.45337 12.24 4.00004H6.66667C5.95942 4.00004 5.28115 4.28099 4.78105 4.78109C4.28095 5.28119 4 5.95946 4 6.66671V25.3334C4 26.0406 4.28095 26.7189 4.78105 27.219C5.28115 27.7191 5.95942 28 6.66667 28H25.3333C26.0406 28 26.7189 27.7191 27.219 27.219C27.719 26.7189 28 26.0406 28 25.3334V6.66671C28 5.95946 27.719 5.28119 27.219 4.78109C26.7189 4.28099 26.0406 4.00004 25.3333 4.00004Z" fill="#2A3143"/>
</svg>
